<svg width="18" height="18" viewBox="0 0 18 18" fill="none" xmlns="http://www.w3.org/2000/svg">
<mask id="mask0_212_4607" style="mask-type:alpha" maskUnits="userSpaceOnUse" x="0" y="0" width="18" height="18">
<rect x="0.349609" y="0.632874" width="17.3048" height="17.3048" fill="#D9D9D9"/>
</mask>
<g mask="url(#mask0_212_4607)">
<path d="M8.28082 13.6115C9.67482 13.6115 10.8645 13.1218 11.8499 12.1424C12.8354 11.163 13.3281 9.97028 13.3281 8.56426C13.3281 7.17026 12.8354 5.98056 11.8499 4.99514C10.8645 4.00973 9.67482 3.51702 8.28082 3.51702C6.8748 3.51702 5.68209 4.00973 4.70268 4.99514C3.72328 5.98056 3.23357 7.17026 3.23357 8.56426C3.23357 9.97028 3.72328 11.163 4.70268 12.1424C5.68209 13.1218 6.8748 13.6115 8.28082 13.6115ZM8.28082 10.3668C8.78554 10.3668 9.21215 10.1956 9.56065 9.85311C9.90915 9.51062 10.0834 9.081 10.0834 8.56426C10.0834 8.05954 9.90915 7.63293 9.56065 7.28443C9.21215 6.93593 8.78554 6.76168 8.28082 6.76168C7.76407 6.76168 7.33446 6.93593 6.99197 7.28443C6.64947 7.63293 6.47823 8.05954 6.47823 8.56426C6.47823 9.081 6.64947 9.51062 6.99197 9.85311C7.33446 10.1956 7.76407 10.3668 8.28082 10.3668ZM8.28082 11.4484C7.28338 11.4484 6.39711 11.181 5.622 10.6463C4.84689 10.1115 4.29109 9.41749 3.95461 8.56426C4.29109 7.72306 4.84689 7.03206 5.622 6.49129C6.39711 5.95051 7.28338 5.68012 8.28082 5.68012C9.26623 5.68012 10.1465 5.95051 10.9216 6.49129C11.6967 7.03206 12.2585 7.72306 12.607 8.56426C12.2585 9.41749 11.6967 10.1115 10.9216 10.6463C10.1465 11.181 9.26623 11.4484 8.28082 11.4484ZM8.28082 9.64581C8.58125 9.64581 8.83661 9.54367 9.04692 9.33938C9.25722 9.13508 9.36237 8.87671 9.36237 8.56426C9.36237 8.26383 9.25722 8.00847 9.04692 7.79816C8.83661 7.58786 8.58125 7.48271 8.28082 7.48271C7.96837 7.48271 7.71 7.58786 7.5057 7.79816C7.30141 8.00847 7.19926 8.26383 7.19926 8.56426C7.19926 8.87671 7.30141 9.13508 7.5057 9.33938C7.71 9.54367 7.96837 9.64581 8.28082 9.64581ZM15.1847 16.4956L12.3186 13.6476C11.7538 14.0922 11.1289 14.4377 10.4439 14.684C9.75894 14.9304 9.0379 15.0536 8.28082 15.0536C7.37952 15.0536 6.53531 14.8823 5.74818 14.5398C4.96105 14.1973 4.27607 13.7347 3.69323 13.1518C3.1104 12.569 2.64773 11.884 2.30524 11.0969C1.96275 10.3098 1.7915 9.46556 1.7915 8.56426C1.7915 7.67499 1.96275 6.83678 2.30524 6.04965C2.64773 5.26253 3.1104 4.57454 3.69323 3.98569C4.27607 3.39685 4.96105 2.93118 5.74818 2.58869C6.53531 2.2462 7.37952 2.07495 8.28082 2.07495C9.17009 2.07495 10.0083 2.2462 10.7954 2.58869C11.5826 2.93118 12.2705 3.39685 12.8594 3.98569C13.4482 4.57454 13.9139 5.26253 14.2564 6.04965C14.5989 6.83678 14.7701 7.67499 14.7701 8.56426C14.7701 9.33337 14.6439 10.0604 14.3916 10.7454C14.1392 11.4304 13.7907 12.0553 13.3461 12.6201L16.2122 15.4862L15.1847 16.4956Z" fill="white"/>
</g>
</svg>
