<svg width="18" height="18" viewBox="0 0 18 18" fill="none" xmlns="http://www.w3.org/2000/svg">
<mask id="mask0_212_4610" style="mask-type:alpha" maskUnits="userSpaceOnUse" x="0" y="0" width="18" height="18">
<rect x="0.345703" y="0.632874" width="17.3048" height="17.3048" fill="#D9D9D9"/>
</mask>
<g mask="url(#mask0_212_4610)">
<path d="M6.83515 16.4956V6.95996C5.74158 6.67155 4.86733 6.06768 4.21239 5.14836C3.55745 4.22904 3.22998 3.20457 3.22998 2.07495H4.67205C4.67205 3.07238 4.99351 3.9226 5.63643 4.62561C6.27936 5.32862 7.09953 5.68012 8.09696 5.68012H9.89955C10.2601 5.68012 10.5966 5.74622 10.909 5.87841C11.2214 6.0106 11.5039 6.20287 11.7562 6.45524L15.0189 9.71792L14.0094 10.7274L11.1614 7.87928V16.4956H9.71929V12.1694H8.27722V16.4956H6.83515ZM8.99826 4.95909C8.60169 4.95909 8.2622 4.81789 7.9798 4.53548C7.69739 4.25308 7.55619 3.91359 7.55619 3.51702C7.55619 3.12045 7.69739 2.78096 7.9798 2.49856C8.2622 2.21615 8.60169 2.07495 8.99826 2.07495C9.39483 2.07495 9.73431 2.21615 10.0167 2.49856C10.2991 2.78096 10.4403 3.12045 10.4403 3.51702C10.4403 3.91359 10.2991 4.25308 10.0167 4.53548C9.73431 4.81789 9.39483 4.95909 8.99826 4.95909Z" fill="white"/>
</g>
</svg>
