<svg width="17" height="17" viewBox="0 0 17 17" fill="none" xmlns="http://www.w3.org/2000/svg">
<mask id="mask0_268_2388" style="mask-type:alpha" maskUnits="userSpaceOnUse" x="0" y="0" width="17" height="17">
<rect x="0.0371094" y="0.421021" width="16.3941" height="16.3941" fill="#D9D9D9"/>
</mask>
<g mask="url(#mask0_268_2388)">
<path d="M8.2342 7.93496C8.60989 7.93496 8.93151 7.80119 9.19905 7.53365C9.4666 7.26611 9.60037 6.94449 9.60037 6.56879C9.60037 6.19309 9.4666 5.87147 9.19905 5.60393C8.93151 5.33639 8.60989 5.20262 8.2342 5.20262C7.8585 5.20262 7.53688 5.33639 7.26934 5.60393C7.0018 5.87147 6.86802 6.19309 6.86802 6.56879C6.86802 6.94449 7.0018 7.26611 7.26934 7.53365C7.53688 7.80119 7.8585 7.93496 8.2342 7.93496ZM4.81877 14.7658V13.3996H7.55111V11.2821C6.99326 11.1568 6.49517 10.9206 6.05686 10.5734C5.61855 10.2261 5.29693 9.79068 5.092 9.26698C4.23815 9.16451 3.52375 8.79166 2.94882 8.14842C2.37389 7.50519 2.08643 6.75095 2.08643 5.8857V5.20262C2.08643 4.82692 2.2202 4.5053 2.48774 4.23776C2.75528 3.97022 3.0769 3.83645 3.4526 3.83645H4.81877V2.47028H11.6496V3.83645H13.0158C13.3915 3.83645 13.7131 3.97022 13.9807 4.23776C14.2482 4.5053 14.382 4.82692 14.382 5.20262V5.8857C14.382 6.75095 14.0945 7.50519 13.5196 8.14842C12.9446 8.79166 12.2302 9.16451 11.3764 9.26698C11.1715 9.79068 10.8498 10.2261 10.4115 10.5734C9.97322 10.9206 9.47513 11.1568 8.91728 11.2821V13.3996H11.6496V14.7658H4.81877ZM4.81877 7.79834V5.20262H3.4526V5.8857C3.4526 6.31832 3.57783 6.70825 3.82829 7.05549C4.07876 7.40272 4.40892 7.65034 4.81877 7.79834ZM11.6496 7.79834C12.0595 7.65034 12.3896 7.40272 12.6401 7.05549C12.8906 6.70825 13.0158 6.31832 13.0158 5.8857V5.20262H11.6496V7.79834Z" fill="white"/>
</g>
</svg>
