<svg width="19" height="19" viewBox="0 0 19 19" fill="none" xmlns="http://www.w3.org/2000/svg">
<path d="M14.7699 4.3248C13.9111 2.85261 12.7356 2.04144 11.4605 2.04144H8.04511C6.77002 2.04144 5.59455 2.85261 4.73571 4.3248C3.93308 5.70022 3.49121 7.52036 3.49121 9.44154C3.49121 11.3627 3.93308 13.1829 4.73571 14.5583C5.59455 16.0305 6.77002 16.8416 8.04511 16.8416H11.4605C12.7356 16.8416 13.9111 16.0305 14.7699 14.5583C15.5726 13.1829 16.0144 11.3627 16.0144 9.44154C16.0144 7.52036 15.5726 5.70022 14.7699 4.3248ZM14.861 8.8723H12.5841C12.5396 7.7042 12.307 6.55091 11.8953 5.45687H14.0719C14.5074 6.40892 14.7949 7.59151 14.861 8.8723ZM13.3952 4.31839H11.351C11.1132 3.90592 10.8265 3.52367 10.4971 3.17992H11.4605C12.1721 3.17992 12.8409 3.60685 13.3952 4.31839ZM11.4605 15.7032H10.4992C10.8286 15.3594 11.1153 14.9771 11.3531 14.5647H13.3974C12.8409 15.2762 12.1721 15.7032 11.4605 15.7032ZM14.0719 13.4262H11.896C12.3077 12.3322 12.5403 11.1789 12.5848 10.0108H14.8617C14.7949 11.2916 14.5074 12.4742 14.0719 13.4262Z" fill="#FFBB00"/>
</svg>
