<svg width="17" height="17" viewBox="0 0 17 17" fill="none" xmlns="http://www.w3.org/2000/svg">
<mask id="mask0_268_2387" style="mask-type:alpha" maskUnits="userSpaceOnUse" x="0" y="0" width="17" height="17">
<rect x="0.414551" y="0.421021" width="16.3941" height="16.3941" fill="#D9D9D9"/>
</mask>
<g mask="url(#mask0_268_2387)">
<path d="M7.97006 15.261V9.0108L2.50537 5.85153V11.3333C2.50537 11.5838 2.56514 11.8115 2.68468 12.0164C2.80422 12.2213 2.97215 12.3864 3.18846 12.5116L7.97006 15.261ZM9.33623 15.261L14.1178 12.5116C14.3341 12.3864 14.5021 12.2213 14.6216 12.0164C14.7411 11.8115 14.8009 11.5838 14.8009 11.3333V5.85153L9.33623 9.0108V15.261ZM12.0515 5.86861L14.0666 4.69028L9.33623 1.97502C9.11992 1.84979 8.89222 1.78717 8.65314 1.78717C8.41406 1.78717 8.18637 1.84979 7.97006 1.97502L6.62096 2.74349L12.0515 5.86861ZM8.65314 7.83248L10.6853 6.67123L5.27187 3.52904L3.22261 4.70736L8.65314 7.83248Z" fill="white"/>
</g>
</svg>
