<svg width="18" height="19" viewBox="0 0 18 19" fill="none" xmlns="http://www.w3.org/2000/svg">
<mask id="mask0_212_4604" style="mask-type:alpha" maskUnits="userSpaceOnUse" x="0" y="0" width="18" height="19">
<rect x="0.349609" y="0.844788" width="17.3048" height="17.3048" fill="#D9D9D9"/>
</mask>
<g mask="url(#mask0_212_4604)">
<path d="M7.12699 12.7418L9.00168 10.8672L10.8764 12.7418L11.8858 11.7324L10.0111 9.8577L11.8858 7.98301L10.8764 6.97356L9.00168 8.84825L7.12699 6.97356L6.11754 7.98301L7.99223 9.8577L6.11754 11.7324L7.12699 12.7418ZM5.3965 15.9865C4.99993 15.9865 4.66045 15.8453 4.37804 15.5629C4.09564 15.2805 3.95443 14.941 3.95443 14.5444V5.17098H3.2334V3.72891H6.83857V3.00787H11.1648V3.72891H14.77V5.17098H14.0489V14.5444C14.0489 14.941 13.9077 15.2805 13.6253 15.5629C13.3429 15.8453 13.0034 15.9865 12.6068 15.9865H5.3965Z" fill="white"/>
</g>
</svg>
