<svg width="17" height="17" viewBox="0 0 17 17" fill="none" xmlns="http://www.w3.org/2000/svg">
<mask id="mask0_268_2381" style="mask-type:alpha" maskUnits="userSpaceOnUse" x="0" y="0" width="17" height="17">
<rect x="0.349609" y="0.421021" width="16.3941" height="16.3941" fill="#D9D9D9"/>
</mask>
<g mask="url(#mask0_268_2381)">
<path d="M2.896 13.2858V7.13799C2.896 6.92168 2.94438 6.71676 3.04115 6.52322C3.13792 6.32967 3.27169 6.17029 3.44246 6.04506L7.54098 2.97117C7.78006 2.78902 8.05329 2.69794 8.36068 2.69794C8.66807 2.69794 8.9413 2.78902 9.18038 2.97117L13.2789 6.04506C13.4497 6.17029 13.5834 6.32967 13.6802 6.52322C13.777 6.71676 13.8254 6.92168 13.8254 7.13799V13.2858C13.8254 13.6615 13.6916 13.9831 13.4241 14.2506C13.1565 14.5182 12.8349 14.6519 12.4592 14.6519H10.4099C10.2164 14.6519 10.0542 14.5865 9.92324 14.4555C9.79231 14.3246 9.72685 14.1624 9.72685 13.9688V10.5534C9.72685 10.3599 9.66139 10.1976 9.53046 10.0667C9.39954 9.9358 9.23731 9.87033 9.04377 9.87033H7.67759C7.48405 9.87033 7.32182 9.9358 7.1909 10.0667C7.05997 10.1976 6.99451 10.3599 6.99451 10.5534V13.9688C6.99451 14.1624 6.92905 14.3246 6.79812 14.4555C6.6672 14.5865 6.50496 14.6519 6.31142 14.6519H4.26217C3.88647 14.6519 3.56485 14.5182 3.29731 14.2506C3.02977 13.9831 2.896 13.6615 2.896 13.2858Z" fill="white"/>
</g>
</svg>
